<?xml version="1.0" encoding="UTF-8"?>
<svg id="Layer_2" data-name="Layer 2" xmlns="http://www.w3.org/2000/svg" viewBox="0 0 2531.52 3956.15">
  <defs>
    <style>
      .cls-1 {
        fill: #086380;
      }
    </style>
  </defs>
  <g id="Layer_1-2" data-name="Layer 1">
    <path class="cls-1" d="M1296.39,.18c881.62-10.5,1179.25,597.17,1227.36,1068.89,89.53,877.95-621.76,1432.87-709.3,1733.43-63.55,218.19-78.76,262.02-83.75,354.97-1.34,25.04,6.87,272.58-10.31,448.58-11.78,120.72-193.62,252.67-281.68,288.06-41.39,29.17-98.27,47.51-135.31,57.19-24.69,6.45-50.58,6.45-75.26,0-37.04-9.68-93.91-28.02-135.31-57.19-88.07-35.4-269.91-167.34-281.68-288.06-17.17-176-8.96-423.55-10.31-448.58-4.99-92.95-20.2-136.78-83.75-354.97C629.54,2501.94-81.75,1947.02,7.78,1069.07,55.88,597.35,413.18-10.37,1294.8,.13"/>
  </g>
</svg>