<?xml version="1.0" encoding="UTF-8"?>
<svg id="Koi" xmlns="http://www.w3.org/2000/svg" width="2531.52" height="3956.15" xmlns:xlink="http://www.w3.org/1999/xlink" viewBox="0 0 2531.52 3956.15">
  <defs>
    <style>
      .cls-1 {
        fill: #010101;
      }

      .cls-2 {
        fill: #db4826;
      }

      .cls-3 {
        filter: url(#drop-shadow-8);
      }

      .cls-3, .cls-4, .cls-5, .cls-6 {
        fill: #f9f9fa;
      }

      .cls-4 {
        filter: url(#drop-shadow-6);
      }

      .cls-5 {
        filter: url(#drop-shadow-7);
      }

      .cls-6 {
        filter: url(#drop-shadow-5);
      }

      .cls-7 {
        filter: url(#drop-shadow-2);
      }

      .cls-7, .cls-8, .cls-9, .cls-10 {
        fill: #ededee;
      }

      .cls-8 {
        filter: url(#drop-shadow-1);
      }

      .cls-9 {
        filter: url(#drop-shadow-3);
      }

      .cls-10 {
        filter: url(#drop-shadow-4);
      }
    </style>
    <filter id="drop-shadow-1" filterUnits="userSpaceOnUse">
      <feOffset dx="5" dy="3"/>
      <feGaussianBlur result="blur" stdDeviation="0"/>
      <feFlood flood-color="#000" flood-opacity=".2"/>
      <feComposite in2="blur" operator="in"/>
      <feComposite in="SourceGraphic"/>
    </filter>
    <filter id="drop-shadow-2" filterUnits="userSpaceOnUse">
      <feOffset dx="5" dy="3"/>
      <feGaussianBlur result="blur-2" stdDeviation="0"/>
      <feFlood flood-color="#000" flood-opacity=".2"/>
      <feComposite in2="blur-2" operator="in"/>
      <feComposite in="SourceGraphic"/>
    </filter>
    <filter id="drop-shadow-3" filterUnits="userSpaceOnUse">
      <feOffset dx="5" dy="3"/>
      <feGaussianBlur result="blur-3" stdDeviation="0"/>
      <feFlood flood-color="#000" flood-opacity=".2"/>
      <feComposite in2="blur-3" operator="in"/>
      <feComposite in="SourceGraphic"/>
    </filter>
    <filter id="drop-shadow-4" filterUnits="userSpaceOnUse">
      <feOffset dx="5" dy="3"/>
      <feGaussianBlur result="blur-4" stdDeviation="0"/>
      <feFlood flood-color="#000" flood-opacity=".2"/>
      <feComposite in2="blur-4" operator="in"/>
      <feComposite in="SourceGraphic"/>
    </filter>
    <filter id="drop-shadow-5" filterUnits="userSpaceOnUse">
      <feOffset dx="5" dy="3"/>
      <feGaussianBlur result="blur-5" stdDeviation="0"/>
      <feFlood flood-color="#000" flood-opacity=".2"/>
      <feComposite in2="blur-5" operator="in"/>
      <feComposite in="SourceGraphic"/>
    </filter>
    <filter id="drop-shadow-6" filterUnits="userSpaceOnUse">
      <feOffset dx="5" dy="3"/>
      <feGaussianBlur result="blur-6" stdDeviation="0"/>
      <feFlood flood-color="#000" flood-opacity=".2"/>
      <feComposite in2="blur-6" operator="in"/>
      <feComposite in="SourceGraphic"/>
    </filter>
    <filter id="drop-shadow-7" filterUnits="userSpaceOnUse">
      <feOffset dx="-2" dy="3"/>
      <feGaussianBlur result="blur-7" stdDeviation="0"/>
      <feFlood flood-color="#000" flood-opacity=".2"/>
      <feComposite in2="blur-7" operator="in"/>
      <feComposite in="SourceGraphic"/>
    </filter>
    <filter id="drop-shadow-8" filterUnits="userSpaceOnUse">
      <feOffset dx="-2" dy="3"/>
      <feGaussianBlur result="blur-8" stdDeviation="0"/>
      <feFlood flood-color="#000" flood-opacity=".2"/>
      <feComposite in2="blur-8" operator="in"/>
      <feComposite in="SourceGraphic"/>
    </filter>
  </defs>
  <g id="BottomFins">
    <path class="cls-8" d="M1728.09,2071.99c-5.08,.86-65.13,8.58-70.28,8.71-58.88,1.51-78.2,.04-88.32,3.01-20.69,6.08-55.67,232.82,5.76,210.97,173.49-61.71,236.66-239.54,236.66-239.54l-83.81,16.85Z"/>
    <path class="cls-7" d="M1171.65,1142.09l-47.05,20.83c-25.26,10.4-104.42,38.07-130.66,45.67l-50.93,12.96s93.08,178.16,310.25,178.16c96.39,0-81.61-257.63-81.61-257.63Z"/>
    <path class="cls-9" d="M1196.83,2076.26c14.65,48,2.38,65.72-7.67,79.47-4.2,5.74-.96,13.76,6.14,14.49,109.19,11.14,230.88-90.28,230.88-90.28-150.22-6.98-229.35-3.67-229.35-3.67Z"/>
    <path class="cls-10" d="M1597.6,1047.01c-16.29-10.9-38.74-36.47-42.64-95.38l-61.42,27.81c-8.29,3.75-115.56,56.55-123.59,60.83l-64.48,34.49s179.73,48.78,291.47-9.25c7.27-3.77,7.46-13.95,.66-18.5Z"/>
  </g>
  <g id="Bodies">
    <path class="cls-6" d="M736.37,1249.91c352.94-21.07,487.19-146.33,781.01-281.05,41.34-18.96,72.5-37.63,124.26-29.03,142.28,23.63,451.09,71.57,481.96,44.13,41.81-37.16-38.32-84.78-131.23-222.98,0,0-45.19-92.75,62.71-191.62,260.95-239.11-145.39-146.91-391.73,53.33-40.01,32.52-90.32,48.37-140.71,45.57,13.07-2.96,9-18.93-33.14-65.22-82.46-90.58-419.25-85.94-419.25-85.94,0,0-60.39,6.97-104.52,12.77-44.13,5.81-36-27.87-113.81,0-62.92,22.54-103.06,71.37-116.12,89.23-3.23,4.42-7.74,7.69-12.95,9.38-3.95,1.28-8.5,2.77-11.75,3.87-369.21,125.59-531.68,269.48-574,432.89-28.57,110.32,75.17,133.07,267.69,145.17,101.62,6.39,214.85,46.45,331.57,39.49Z"/>
    <path class="cls-4" d="M2368.83,1648.99c-91.26-111.08-271.64-163.43-610.73-126.59l-22.07,2.4c1.41-.08,1.97-1.82,.88-2.71-10.18-8.35-47.15-34.3-107.72-28.68-71.96,6.68-84.36,40.91-125.35,54.57-20.19,6.73-108.68,25.83-167.15,67.53-81.46,58.1-244.2,249.43-244.2,249.43-45.04,38.29-41.64,9.58-98.48-4.36-267.19-65.51-589.07,7.01-315.17,141.33,113.66,55.74,96.9,102,96.9,102-25.63,140.66-64.26,179.02-22.37,203.28,80.28,46.5,264.14-139.16,369.49-209.1,38.33-25.44,69.78-22.3,109.47-22.64,282.08-2.42,433.36,45.77,722.71-66.05,95.69-36.98,172.05-109.08,250.98-150.91,149.53-79.25,224.41-134.5,162.8-209.5Z"/>
  </g>
  <g id="ArmFins">
    <path class="cls-5" d="M724.96,1169.25c-158.24,1.35-116.72,24.39-116.72,24.39,0,0,209.63,75.88,301.37,64.45,91.74-11.42,95.81-45.28,95.81-45.28,.21-7.71,11.6-46.05-280.47-43.56Z"/>
    <path class="cls-3" d="M2044.27,1915.99c-19.19,4.43-48.57,12.94-77.65,28.09-227.26,118.42-190.13,158.24-186.75,163.85,0,0,22.01,24.6,96.89-6.5,59.52-24.72,143.99-129.95,176.13-172.08,4.81-6.3-.9-15.14-8.62-13.36Z"/>
  </g>
  <g id="Colors">
    <path class="cls-2" d="M1084.19,923.57c1.27,13.24-11.83,19.28-8.13,31.36,2.32,7.55,10.25,14.36,17.42,13.94,12.17-.72,12.76,3.22,22.07,18.58,4.28,7.07,13.96,13.85,20.9,11.61,16.72-5.38,17.45-62.91,9.29-106.84-6.37-34.31-17.97-59.22-11.61-62.71,3.65-2,12.08,3.67,16.26,10.45,6.97,11.31-1.21,20.28,5.81,32.52,4.22,7.37,7.76,5.1,13.94,13.94,7.83,11.2,3.95,17.4,10.45,25.55,7.33,9.18,22.54,14.18,29.03,9.29,5.72-4.3,.83-13.34,4.65-36,1.27-7.56,3.79-22.49,9.29-23.23,5.92-.79,8.51,15.73,16.26,16.26,10.13,.69,26.71-26.12,19.74-45.29-4.74-13.04-15.93-10.32-23.23-25.55-8.41-17.56-1.97-38.8,0-45.29,4.2-13.87,8.02-12.96,8.13-20.9,.21-15.23-13.79-19.05-24.39-42.97-6.17-13.93-2.11-14.2-8.13-26.71-5.55-11.54-12.28-18.13-31.36-36-19.92-18.66-29.09-30.07-32.52-30.2-34.33-1.22-58.8-7.54-214.36,8.34-62.35,6.36-128.7-5.07-189.96,8.62-47.42,10.61-188.86,64.86-285.73,113.7-110.71,55.82-152.92,96.33-172.19,111.27-113.65,88.1-143.44,197.79-142.84,197.76,47.4-2.39,82.73-97.1,148-93.61,100.99,5.4,78.07-64.76,94.5-75.95,17.72-12.07,38.91,27.47,43.7,35.31,8.23,13.46,42.15,6,65.03,15.55,35.3,14.73,23.75,54.26,44.14,64.58,41.98,21.25,96.67-63.16,72-90.58-14.53-16.15-19.72-59.25-18.58-67.36,3.55-25.25,22,19.96,49.16,8.7,33.14-13.75,22.42-54.25,30.98-52.83,7.12,1.18,8.54,23.93,23.27,53.38,13.21,26.4-8.44,42.32-2.95,54.24,10.42,22.62,28.84,14.57,36.31,28.6,13.79,25.89,9.31,21.15,10.72,41.47,1.21,17.5-10.87,22.56-12.77,40.65-5.89,55.87,1.6,78.34,44.94,97.03,25.24,10.88,121.19,11.87,107.43-47.18-6.72-28.84-25-21.47-27.2-32.45-6.47-32.34,25.56-33.65,17.44-51.22-19.31-41.75,33.66-48.14,35.08-66.06,1.67-21.1-25.59-30.68-22.07-49.94,2.36-12.89,17.02-22.04,20.9-19.74,4.95,2.94,2.79,27.73,10.94,36.04,5.39,5.5,19.35,4.55,27.87-2.32,19.25-15.52-5.43-60.5,5.31-63.91,5.8-1.84,10.2,10.1,17.42,9.29,18.02-2.02,16.17-79.22,38.32-83.62,10.86-2.16,18.45,14.95,30.2,11.61,14.03-3.99,11.87-30.88,22.07-32.52,10.81-1.74,30.1,25.77,23.23,41.81-3.9,9.09-12.93,6.9-30.19,19.74-9.33,6.94-25.51,18.99-26.71,34.84-.91,12.02,7.72,13.86,18.58,38.32,10.55,23.76,4.62,26.99,13.94,41.81,13.15,20.9,28.84,20.65,30.19,34.84Z"/>
    <path class="cls-2" d="M1290.53,746.74c7.3,2.26,17.72-.58,20.47,4.79,2.43,4.74-4.39,9.49-2.61,14.81,3.12,9.36,31,14.97,46.16,3.05,10.7-8.42,9.44-21.14,16.11-21.78,7-.66,15.49,12.67,18.73,24.82,4.41,16.56-1.96,27.15,3.48,30.92,7.16,4.97,22.75-10.2,27.87-5.66,5.25,4.66-7.29,24.01-.87,29.61,3.42,2.99,9.21-.56,12.19,3.05,2.76,3.34-1.13,7.69,.44,13.06,2.22,7.62,14.4,13.85,23.95,11.76,8.27-1.81,9.06-8.64,23.08-22.21,10.42-10.09,11.49-7.76,18.73-15.24,17.14-17.71,19.22-39.04,22.21-38.32,1.83,.43,2.58,8.76,.44,16.11-2.15,7.38-6.17,10.19-4.79,13.06,1.48,3.1,8.47,4.67,13.06,2.18,6.63-3.6,5-13.91,7.84-37.02,2.62-21.3,4.12-32.59,10.02-34.4,6.38-1.96,17.67,7.23,20.03,17.42,1.91,8.23-2.85,13.51,.87,18.73,2.74,3.84,8.89,5.96,13.94,4.79,13.08-3.03,11.67-26.53,23.08-29.18,7.59-1.76,10.47,8.11,25.26,13.06,13.72,4.6,32.62,3.27,39.63-6.53,3.88-5.42,1.35-9.54,.87-27.87-.71-27.25,4.6-28.69,1.31-39.63-5.33-17.68-24.12-33.68-41.81-33.53-14.7,.12-20.52-2.36-32.96,2-103.05,36.06-289.57-54.56-307.83-39.73-30.74,24.98-25.09,119.77,1.09,127.88Z"/>
    <path class="cls-2" d="M991.2,851.49c-1.29,.08-4.65,.33-7.84,2.32-17.62,11.03-13.21,65.13,6.39,72.87,5.76,2.28,14.1,1.05,16.26-2.9,2.68-4.9-5.2-12.04-2.32-16.26,2.43-3.57,8.96,.21,13.94-3.19,6.93-4.73,5.89-20.01,1.74-30.19-4.55-11.18-15.79-23.42-28.16-22.65Z"/>
    <path class="cls-2" d="M2369.95,1650.38c-42.46-50.44-99-91.17-193.49-115.25-41.23-10.51-126.52-30.16-263.39-24.6-59.39,2.41-100.7,2.47-174.95,14.33-38.74,6.18-70.82,18.42-110.9,28.77-99.47,25.71-190.34,74.2-232.22,100.14-127.4,78.91-276.16,187.58-299.19,207.3-10.69,9.15-24.67,21.78-37.38,22.94-5.94,.54-20.95,14.69-7.35,19.58,9.2,3.31,25.76-8.35,31.65,11.52,4.17,14.09,30.51,23.87,35.51,26.65,9.05,5.04,24.61-.8,33.96-9.33,10.07-9.2,8.9-17.88,15.58-19.28,10.05-2.1,17.18,16.6,28.7,14.2,4.44-.93,8.61-4.8,9.45-8.77,1.14-5.39-4.52-7.74-5.89-14.81-1.69-8.74,4.09-19.95,9.88-20.75,5.35-.74,10.52,7.45,20.1,22.98,10.39,16.85,12.71,25.42,19.28,25.8,4.55,.26,9.57-3.49,9.67-6.43,.09-2.72-4.11-3.44-8.42-8.37-4.3-4.91-6.62-11.63-5.32-12.63,2.14-1.64,11.3,14.11,31.22,21.59,8.41,3.16,8.45,.98,20.32,5,15.97,5.41,19.01,10.41,26.25,8.81,8.36-1.85,15.91-11.09,15-17.79-.64-4.73-5.28-6.68-4.25-10.27,1.11-3.87,6.99-3.23,8.67-6.79,3.16-6.67-13.67-17.09-11.11-22.6,2.5-5.37,20.28,.7,24.26-5.74,3.02-4.89-5.79-10.78-8.09-25.19-1.69-10.58,.41-23.98,6.23-26.01,5.11-1.78,5.68,57.59,34.82,19.23,3.7-4.88,11.71-2.41,11.55,3.71,0,.06,0,.12,0,.17-.47,14.43-16.04,20.63-22.79,30.36-12.62,18.2,5.96,38.02,14.85,37.43,26.84-1.78,38.35-35.33,37.33-30.19-5.99,30.19,25.88,39.52,31.96,40.77,6.91,1.42,17.3-7.96,19.93-17.73,2.33-8.66-2.95-12.06-.63-23.56,1.83-9.08,5.45-8.61,6.23-15.84,1.3-12.01-8.39-15.98-6.8-27.27,.96-6.77,5.7-14.21,9.31-13.99,6.3,.39,5.8,23.88,12.77,52.74,8.93,36.96,29.74,81.21,44.99,79.3,6.33-.79,11.68-9.55,12.62-16.57,2.03-15.26-15.94-28.4-13.88-30.55,1.92-2,15,12.03,24.98,8.16,5.88-2.28,9.82-10.43,9.02-17.11-1.28-10.69-12.69-11.09-17.52-21.31-20-42.29,48.61-7.54,29.46-77.05-6.08-22.05-8.05-22.6-19.78-34.68-9.42-9.69-23.69-15.28-33.59-17.26-18.3-3.67,5.23-18.97,1.85-27.95-15.44-41.02,28.79-43.18,20.04-19.95-6.98,18.53-5.95,49.04,42.17,47.7,6.37-.18,23.68-12.71,28.49-10.43,19.18,9.09-17.19,30.14-6.21,48.55,4.9,8.22,13.37,22.47,53.91,20.25,35.86-1.97-4.75-57.38-1.83-61.45,2.29-3.19,17.22-1.43,23.64,7.69,9.59,13.62-8.82,30.93-.07,46.65,7.43,13.35,32.22,6.28,30.29,19.85-7.66,53.8,103.32,62.12,122.28-33.88,3.36-16.99,4.16-21.32,1.4-46.17-2.25-20.33-9.88-24.27-9.5-45.55,.19-11.22,2.32-10.61,2.97-23.03,1.46-28.13,25.14-57.93,31.2-61.88,8.54-5.56,34.45,25.88,44.8,19.76,6.18-3.66,2.43-18.14,5.94-18.96,3.2-.74,10.65,10.3,12.88,23.42,4.4,25.84,.05,24.47,5.43,42.14,3.09,10.16,54.25,53.15,85.55,11.43,35.64-47.53-7.28-111.82,65.37-94.24,26.11,6.32,49.88,40.78,122.35,52.66,62.06,10.17,151.55,3.28,148.48-.38Z"/>
    <path class="cls-2" d="M1866.08,1697.84c-4.98,13.9,.11,34.27,23.23,36.54,4.37,.43,0,16.04,10.47,23.39,7.87,5.53,27.39-1.43,34.31-20.05,15.55-41.84-53.7-79.85-68.01-39.88Z"/>
  </g>
  <g id="Eyes">
    <path class="cls-1" d="M2312.96,1638.88c-3.76-17.71-25.87-28.62-40.99-20.79-11.95,6.19-16.89,22.71-11.9,35.94,4.43,11.77,16.89,21.38,30.32,19.3,15.68-2.43,25.71-19.72,22.58-34.46Z"/>
    <path class="cls-1" d="M276.04,1024.75c-.77-.47-11.3-6.6-22.65-2.18-14.33,5.58-22.08,24.93-15.68,38.32,8.09,16.91,36.72,20.12,47.91,6.97,9.91-11.66,4.69-34.49-9.58-43.12Z"/>
  </g>
</svg>