<?xml version="1.0" encoding="UTF-8"?>
<svg id="Layer_2" data-name="Layer 2" xmlns="http://www.w3.org/2000/svg" viewBox="0 0 629.99 117.55">
  <defs>
    <style>
      .cls-1 {
        fill: #046380;
      }

      .cls-2 {
        fill: #fff;
      }

      .cls-3 {
        fill: #49c3d8;
      }
    </style>
  </defs>
  <g id="Layer_9" data-name="Layer 9">
    <g>
      <path class="cls-1" d="M2.85,40.3L47,0h3.97L6.32,40.3l46.87,47.49h-3.84L2.85,40.55h-.12v47.24H0V0H2.73V40.3h.12Z"/>
      <path class="cls-1" d="M108.75,74.9c0,2.15,.1,4.44,.31,6.88,.21,2.44,.43,4.44,.68,6.01h-2.6c-.17-.83-.29-1.84-.37-3.04-.08-1.2-.19-2.44-.31-3.72-.12-1.28-.21-2.54-.25-3.78-.04-1.24-.06-2.27-.06-3.1h-.37c-1.65,5.21-4.51,9.07-8.56,11.59-4.05,2.52-8.39,3.78-13.02,3.78-2.31,0-4.61-.33-6.88-.99-2.27-.66-4.32-1.65-6.14-2.98-1.82-1.32-3.29-3.02-4.4-5.08-1.12-2.07-1.67-4.5-1.67-7.32,0-4.05,1.05-7.32,3.16-9.8s4.73-4.4,7.87-5.77c3.14-1.36,6.51-2.25,10.11-2.67,3.6-.41,6.88-.62,9.86-.62h9.92v-4.59c0-6.36-1.7-11.01-5.08-13.95-3.39-2.93-7.81-4.4-13.27-4.4-3.39,0-6.55,.62-9.49,1.86-2.94,1.24-5.56,2.89-7.87,4.96l-1.49-2.11c2.65-2.31,5.64-4.07,8.99-5.27,3.35-1.2,6.63-1.8,9.86-1.8,6.53,0,11.67,1.67,15.44,5.02,3.76,3.35,5.64,8.62,5.64,15.81v25.05Zm-2.73-18.23h-8.8c-3.14,0-6.45,.19-9.92,.56s-6.66,1.14-9.55,2.29c-2.89,1.16-5.27,2.81-7.13,4.96-1.86,2.15-2.79,5.04-2.79,8.68,0,2.65,.51,4.86,1.55,6.63,1.03,1.78,2.36,3.2,3.97,4.28,1.61,1.08,3.39,1.86,5.33,2.36,1.94,.5,3.78,.74,5.52,.74,4.22,0,7.73-.78,10.54-2.36,2.81-1.57,5.06-3.57,6.76-6.01,1.69-2.44,2.87-5.12,3.53-8.06,.66-2.93,.99-5.81,.99-8.62v-5.46Z"/>
      <path class="cls-1" d="M144.21,32.92c3.64-2.6,7.56-3.91,11.78-3.91h1.12c.33,0,.7,.04,1.12,.12v2.36c-.33-.08-.64-.12-.93-.12h-.68c-3.64,0-6.74,.81-9.3,2.42-2.56,1.61-4.67,3.72-6.32,6.32-1.66,2.6-2.87,5.5-3.66,8.68-.79,3.18-1.18,6.35-1.18,9.49v29.51h-2.73V45.14c0-.91-.02-2.02-.06-3.35-.04-1.32-.08-2.67-.12-4.03-.04-1.36-.1-2.67-.19-3.91-.08-1.24-.17-2.27-.25-3.1h2.73c.08,.83,.14,1.86,.19,3.1,.04,1.24,.08,2.58,.12,4.03,.04,1.45,.08,2.85,.12,4.22,.04,1.36,.06,2.58,.06,3.66h.25c1.65-5.95,4.3-10.23,7.94-12.83Z"/>
      <path class="cls-1" d="M175.58,46.25c2.47-5.7,6-10,10.58-12.9,4.58-2.89,9.59-4.34,15.03-4.34,4.2,0,8.06,.77,11.57,2.29,3.5,1.53,6.52,3.64,9.03,6.32,2.51,2.69,4.45,5.89,5.81,9.61,1.36,3.72,2.04,7.77,2.04,12.15s-.7,8.29-2.1,11.97c-1.4,3.68-3.36,6.86-5.88,9.55-2.52,2.69-5.53,4.79-9.03,6.32-3.51,1.53-7.32,2.29-11.44,2.29-2.72,0-5.38-.37-7.98-1.12-2.6-.74-5.01-1.84-7.24-3.29-2.23-1.45-4.25-3.22-6.06-5.33-1.82-2.11-3.26-4.57-4.33-7.38h-.37v45.14h-2.85V30.75h2.84v15.5h.39Zm51.34,13.14c0-3.72-.6-7.27-1.79-10.66-1.2-3.39-2.91-6.36-5.13-8.93-2.23-2.56-4.93-4.61-8.1-6.14-3.17-1.53-6.74-2.29-10.7-2.29s-7.28,.74-10.45,2.23c-3.18,1.49-5.92,3.49-8.23,6.01-2.31,2.52-4.12,5.48-5.44,8.87-1.32,3.39-1.98,6.99-1.98,10.79s.66,7.4,1.98,10.79c1.32,3.39,3.13,6.35,5.44,8.87,2.31,2.52,5.05,4.53,8.23,6.01,3.17,1.49,6.66,2.23,10.45,2.23s7.52-.74,10.7-2.23c3.18-1.49,5.88-3.49,8.1-6.01,2.23-2.52,3.94-5.48,5.13-8.87,1.2-3.39,1.79-6.94,1.79-10.66Z"/>
      <path class="cls-1" d="M289.16,74.9c0,2.15,.1,4.44,.31,6.88,.21,2.44,.43,4.44,.68,6.01h-2.6c-.17-.83-.29-1.84-.37-3.04-.08-1.2-.19-2.44-.31-3.72-.12-1.28-.21-2.54-.25-3.78-.04-1.24-.06-2.27-.06-3.1h-.37c-1.66,5.21-4.51,9.07-8.56,11.59-4.05,2.52-8.39,3.78-13.02,3.78-2.32,0-4.61-.33-6.88-.99-2.27-.66-4.32-1.65-6.14-2.98-1.82-1.32-3.29-3.02-4.4-5.08-1.12-2.07-1.67-4.5-1.67-7.32,0-4.05,1.05-7.32,3.16-9.8,2.11-2.48,4.73-4.4,7.87-5.77,3.14-1.36,6.51-2.25,10.11-2.67,3.6-.41,6.88-.62,9.86-.62h9.92v-4.59c0-6.36-1.7-11.01-5.08-13.95-3.39-2.93-7.81-4.4-13.27-4.4-3.39,0-6.55,.62-9.49,1.86-2.94,1.24-5.56,2.89-7.87,4.96l-1.49-2.11c2.64-2.31,5.64-4.07,8.99-5.27,3.35-1.2,6.63-1.8,9.86-1.8,6.53,0,11.68,1.67,15.44,5.02,3.76,3.35,5.64,8.62,5.64,15.81v25.05Zm-2.73-18.23h-8.8c-3.14,0-6.45,.19-9.92,.56-3.47,.37-6.66,1.14-9.55,2.29-2.89,1.16-5.27,2.81-7.13,4.96-1.86,2.15-2.79,5.04-2.79,8.68,0,2.65,.52,4.86,1.55,6.63,1.03,1.78,2.36,3.2,3.97,4.28,1.61,1.08,3.39,1.86,5.33,2.36,1.94,.5,3.78,.74,5.52,.74,4.22,0,7.73-.78,10.54-2.36,2.81-1.57,5.06-3.57,6.76-6.01,1.69-2.44,2.87-5.12,3.53-8.06,.66-2.93,.99-5.81,.99-8.62v-5.46Z"/>
    </g>
    <rect class="cls-3" x="339.99" y="13.79" width="290" height="74"/>
    <g>
      <path class="cls-2" d="M456.48,59.5h.13l10.44-35.47h6.86l10.38,35.47h.13l9.81-35.47h6.6l-13.08,44.53h-6.48l-10.82-35.78h-.13l-10.82,35.78h-6.48l-13.08-44.53h6.73l9.81,35.47Z"/>
      <path class="cls-2" d="M508.68,68.56h-6.92l19.31-44.53h5.66l19.12,44.53h-7.04l-4.53-10.94h-21.13l-4.47,10.94Zm6.67-16.41h16.67l-8.3-20.88-8.36,20.88Z"/>
      <path class="cls-2" d="M557.79,68.56h-6.23V24.03h14.28c2.14,0,4.17,.22,6.1,.66,1.93,.44,3.62,1.14,5.06,2.11,1.45,.96,2.59,2.23,3.43,3.8,.84,1.57,1.26,3.49,1.26,5.75,0,3.27-1.01,5.91-3.02,7.92-2.01,2.01-4.61,3.29-7.8,3.84l12.45,20.44h-7.55l-11.32-19.81h-6.67v19.81Zm0-25.03h7.17c1.47,0,2.83-.13,4.09-.38s2.36-.66,3.3-1.23c.94-.57,1.69-1.3,2.23-2.2,.54-.9,.82-2.02,.82-3.36s-.27-2.46-.82-3.36c-.55-.9-1.27-1.62-2.17-2.17-.9-.54-1.96-.93-3.18-1.16-1.22-.23-2.5-.35-3.84-.35h-7.61v14.21Z"/>
      <path class="cls-2" d="M596.41,63.02h23.27v5.53h-29.5V24.03h28.55v5.47h-22.33v13.33h21.01v5.35h-21.01v14.84Z"/>
    </g>
  </g>
</svg>