<?xml version="1.0" encoding="UTF-8"?>
<svg id="Layer_2" data-name="Layer 2" xmlns="http://www.w3.org/2000/svg" viewBox="0 0 643.13 151.53">
  <defs>
    <style>
      .cls-1 {
        fill: #fff;
      }

      .cls-2 {
        fill: #49c3d8;
      }

      .cls-3 {
        fill: #046380;
        font-family: AvenirNext-UltraLight, 'Avenir Next';
        font-size: 124px;
        font-weight: 100;
      }
    </style>
  </defs>
  <g id="Layer_3_copy_2" data-name="Layer 3 copy 2">
    <rect class="cls-2" x="353.13" y="31.89" width="290" height="74"/>
    <g>
      <path class="cls-1" d="M469.62,77.6h.13l10.44-35.47h6.86l10.38,35.47h.13l9.81-35.47h6.6l-13.08,44.53h-6.48l-10.82-35.78h-.13l-10.82,35.78h-6.48l-13.08-44.53h6.73l9.81,35.47Z"/>
      <path class="cls-1" d="M521.82,86.66h-6.92l19.31-44.53h5.66l19.12,44.53h-7.04l-4.53-10.94h-21.13l-4.47,10.94Zm6.67-16.41h16.67l-8.3-20.88-8.36,20.88Z"/>
      <path class="cls-1" d="M570.94,86.66h-6.23V42.13h14.28c2.14,0,4.17,.22,6.1,.66,1.93,.44,3.62,1.14,5.06,2.11,1.45,.96,2.59,2.23,3.43,3.8,.84,1.57,1.26,3.49,1.26,5.75,0,3.27-1.01,5.91-3.02,7.92-2.01,2.01-4.61,3.29-7.8,3.84l12.45,20.44h-7.55l-11.32-19.81h-6.67v19.81Zm0-25.03h7.17c1.47,0,2.83-.13,4.09-.38s2.36-.66,3.3-1.23c.94-.57,1.69-1.3,2.23-2.2,.54-.9,.82-2.02,.82-3.36s-.27-2.46-.82-3.36c-.55-.9-1.27-1.62-2.17-2.17-.9-.54-1.96-.93-3.18-1.16-1.22-.23-2.5-.35-3.84-.35h-7.61v14.21Z"/>
      <path class="cls-1" d="M609.55,81.13h23.27v5.53h-29.5V42.13h28.55v5.47h-22.33v13.33h21.01v5.35h-21.01v14.84Z"/>
    </g>
    <text class="cls-3" transform="translate(0 105.89)"><tspan x="0" y="0">Karpa</tspan></text>
  </g>
</svg>